<?xml version="1.0" encoding="UTF-8"?>
<svg width="128" height="128" viewBox="0 0 128 128" xmlns="http://www.w3.org/2000/svg">
  <!-- Background grid -->
  <rect x="4" y="4" width="120" height="120" rx="4" fill="#0a1628"/>
  <!-- Grid lines -->
  <g stroke="#1a3050" stroke-width="0.5" opacity="0.6">
    <line x1="4" y1="24" x2="124" y2="24"/>
    <line x1="4" y1="44" x2="124" y2="44"/>
    <line x1="4" y1="64" x2="124" y2="64"/>
    <line x1="4" y1="84" x2="124" y2="84"/>
    <line x1="4" y1="104" x2="124" y2="104"/>
    <line x1="24" y1="4" x2="24" y2="124"/>
    <line x1="44" y1="4" x2="44" y2="124"/>
    <line x1="64" y1="4" x2="64" y2="124"/>
    <line x1="84" y1="4" x2="84" y2="124"/>
    <line x1="104" y1="4" x2="104" y2="124"/>
  </g>
  <!-- Porous obstacles -->
  <circle cx="34" cy="34" r="10" fill="#334466" stroke="#4a6080" stroke-width="1"/>
  <circle cx="84" cy="54" r="12" fill="#334466" stroke="#4a6080" stroke-width="1"/>
  <circle cx="54" cy="94" r="9" fill="#334466" stroke="#4a6080" stroke-width="1"/>
  <circle cx="104" cy="94" r="8" fill="#334466" stroke="#4a6080" stroke-width="1"/>
  <!-- Flow streamlines -->
  <path d="M 8 20 Q 20 18, 24 22 Q 30 28, 20 34 Q 14 38, 12 44 Q 10 52, 18 56 Q 28 60, 34 54" fill="none" stroke="#4da6ff" stroke-width="1.5" opacity="0.7"/>
  <path d="M 8 50 Q 20 48, 30 52 Q 42 56, 48 48 Q 56 38, 64 36 Q 72 34, 76 42 Q 78 50, 72 56 Q 64 62, 68 70 Q 72 78, 80 76" fill="none" stroke="#4da6ff" stroke-width="1.5" opacity="0.8"/>
  <path d="M 8 80 Q 18 78, 28 82 Q 38 86, 44 90 Q 48 92, 44 98 Q 38 106, 48 108 Q 58 110, 68 106 Q 78 102, 84 98 Q 90 94, 96 90 Q 100 88, 96 96 Q 92 104, 100 108 Q 108 112, 120 108" fill="none" stroke="#4da6ff" stroke-width="1.5" opacity="0.7"/>
  <path d="M 8 108 Q 20 106, 32 110 Q 44 114, 56 112 Q 68 110, 80 114 Q 92 118, 104 114 Q 116 110, 124 112" fill="none" stroke="#4da6ff" stroke-width="1.5" opacity="0.5"/>
  <!-- Velocity arrows -->
  <polygon points="80,74 84,76 80,78" fill="#4da6ff" opacity="0.8"/>
  <polygon points="34,52 38,54 34,56" fill="#4da6ff" opacity="0.7"/>
  <polygon points="120,106 124,108 120,110" fill="#4da6ff" opacity="0.7"/>
</svg>
